<?xml version="1.0" encoding="UTF-8" standalone="no"?>
<!DOCTYPE svg PUBLIC "-//W3C//DTD SVG 1.1//EN" "http://www.w3.org/Graphics/SVG/1.1/DTD/svg11.dtd">
<svg width="100%" height="100%" viewBox="0 0 126 42" version="1.1" xmlns="http://www.w3.org/2000/svg" xmlns:xlink="http://www.w3.org/1999/xlink" xml:space="preserve" xmlns:serif="http://www.serif.com/" style="fill-rule:evenodd;clip-rule:evenodd;stroke-linejoin:round;stroke-miterlimit:2;">
    <path d="M39.517,25.551C42.79,26.348 44.493,27.52 44.493,30.107C44.493,33.027 42.215,34.751 38.964,34.751C36.597,34.751 34.364,33.933 32.506,32.275L34.143,30.329C35.624,31.612 37.106,32.341 39.03,32.341C40.711,32.341 41.773,31.567 41.773,30.372C41.773,29.244 41.153,28.648 38.278,27.984C34.983,27.188 33.125,26.215 33.125,23.34C33.125,20.642 35.336,18.828 38.411,18.828C40.667,18.828 42.458,19.514 44.028,20.774L42.568,22.832C41.175,21.792 39.782,21.239 38.367,21.239C36.774,21.239 35.846,22.057 35.846,23.097C35.846,24.312 36.554,24.843 39.517,25.551" style="fill:rgb(58,58,58);fill-rule:nonzero;"/>
    <path d="M58.055,19.005L60.354,19.005L64.159,30.526L67.853,19.048L70.704,19.048L65.308,34.64L62.965,34.64L59.16,23.516L55.357,34.64L53.012,34.64L47.616,19.048L50.558,19.048L54.251,30.526L58.055,19.005Z" style="fill:rgb(58,58,58);fill-rule:nonzero;"/>
    <path d="M82.01,34.53L79.269,34.53L79.269,28.426L73.12,19.049L76.327,19.049L80.661,25.905L85.04,19.049L88.157,19.049L82.01,28.36L82.01,34.53Z" style="fill:rgb(241,91,42);fill-rule:nonzero;"/>
    <path d="M103.025,19.049L105.698,19.049L105.698,34.53L103.421,34.53L94.885,23.517L94.885,34.53L92.208,34.53L92.208,19.049L94.73,19.049L103.025,29.753L103.025,19.049Z" style="fill:rgb(58,58,58);fill-rule:nonzero;"/>
    <path d="M118.685,34.795C113.841,34.795 110.658,31.345 110.658,26.812C110.658,22.454 113.974,18.783 118.641,18.783C121.339,18.783 122.997,19.535 124.59,20.884L122.864,22.941C121.671,21.924 120.497,21.283 118.528,21.283C115.675,21.283 113.508,23.759 113.508,26.767C113.508,29.974 115.61,32.318 118.772,32.318C120.231,32.318 121.558,31.854 122.509,31.146L122.509,28.249L118.55,28.249L118.55,25.882L125.141,25.882L125.141,32.384C123.616,33.69 121.428,34.795 118.685,34.795" style="fill:rgb(58,58,58);fill-rule:nonzero;"/>
    <path d="M4.129,19.745L4.129,27.592C4.129,29.244 4.396,31.221 6.49,31.221C8.585,31.221 8.85,29.244 8.85,27.592L8.85,19.745L12.98,19.745L12.98,28.271C12.98,32.49 10.797,34.702 6.49,34.702C2.182,34.702 0,32.49 0,28.271L0,19.745L4.129,19.745Z" style="fill:rgb(241,91,42);fill-rule:nonzero;"/>
    <path d="M20.003,21.072C20.947,19.951 22.482,19.273 24.016,19.273C28.116,19.273 30.623,23.108 30.623,26.913C30.623,30.867 28.205,34.701 23.927,34.701C22.452,34.701 20.888,34.053 20.062,32.873L20.003,32.873L20.003,41.959L15.873,41.959L15.873,19.745L20.003,19.745L20.003,21.072ZM26.434,26.972C26.434,25.025 25.136,22.93 23.012,22.93C20.888,22.93 19.59,25.025 19.59,26.972C19.59,28.92 20.888,31.044 23.012,31.044C25.135,31.044 26.434,28.92 26.434,26.972" style="fill:rgb(241,91,42);fill-rule:nonzero;"/>
    <path d="M17.982,0.021L29.185,14.822L22.392,14.822L12.579,1.567L17.982,0.021Z" style="fill:rgb(243,189,32);fill-rule:nonzero;"/>
    <path d="M11.661,0L0.529,14.899L7.185,14.899L17.982,0.021C17.982,0.021 11.537,0 11.661,0" style="fill:rgb(241,91,42);fill-rule:nonzero;"/>
</svg>
