<?xml version="1.0" encoding="utf-8"?>
<!-- Generator: Adobe Illustrator 16.0.4, SVG Export Plug-In . SVG Version: 6.00 Build 0)  -->
<!DOCTYPE svg PUBLIC "-//W3C//DTD SVG 1.1//EN" "http://www.w3.org/Graphics/SVG/1.1/DTD/svg11.dtd">
<svg version="1.1" xmlns="http://www.w3.org/2000/svg" xmlns:xlink="http://www.w3.org/1999/xlink" x="0px" y="0px"
	 width="368.64px" height="368.64px" viewBox="0 0 368.64 368.64" enable-background="new 0 0 368.64 368.64" xml:space="preserve">
<g id="Layer_1">
	<g>
		<rect x="314.31" y="254.405" fill-rule="evenodd" clip-rule="evenodd" fill="#231F20" width="8.707" height="10.107"/>
		<path fill-rule="evenodd" clip-rule="evenodd" fill="#CDCDCD" d="M311.349,215.609h14.63v35.929c0,4.023-3.292,7.314-7.315,7.314
			l0,0c-4.023,0-7.314-3.291-7.314-7.314V215.609z"/>
		<rect x="45.623" y="254.843" fill-rule="evenodd" clip-rule="evenodd" fill="#231F20" width="8.707" height="9.231"/>
		<path fill="#F15B2A" d="M237.217,76.763h1.01c4.955,0,9.457,2.104,12.718,5.495c3.261,3.391,5.284,8.071,5.284,13.224
			c0,5.153-2.023,9.833-5.284,13.224c-3.261,3.39-7.763,5.495-12.718,5.495h-1.01c-0.739,0-1.439-0.178-2.062-0.495V77.258
			C235.777,76.941,236.478,76.763,237.217,76.763z"/>
		<path fill="#F15B2A" d="M131.411,76.763h-1.008c-4.956,0-9.458,2.104-12.718,5.495c-3.261,3.391-5.285,8.071-5.285,13.224
			c0,5.153,2.024,9.833,5.285,13.224c3.26,3.39,7.763,5.495,12.718,5.495h1.008c0.74,0,1.44-0.178,2.063-0.495V77.258
			C132.852,76.941,132.151,76.763,131.411,76.763z"/>
		<rect x="178.986" y="22.72" fill="#CDCDCD" width="10.657" height="38.149"/>
		<path fill="#F15B2A" d="M184.314,0c3.945,0,7.516,1.663,10.101,4.351s4.185,6.402,4.185,10.503s-1.599,7.815-4.185,10.503
			c-2.585,2.688-6.156,4.351-10.101,4.351c-3.944,0-7.516-1.663-10.101-4.351s-4.185-6.402-4.185-10.503s1.6-7.815,4.185-10.503
			C176.798,1.663,180.37,0,184.314,0z"/>
		<path fill="#5F6062" d="M238.402,153.484V56.426c0-3.272-2.551-5.925-5.698-5.925c-41.853,0-54.928,0-96.78,0
			c-3.147,0-5.698,2.653-5.698,5.925v97.058H238.402z"/>
		<path fill-rule="evenodd" clip-rule="evenodd" fill="#FFFFFF" d="M158.05,81.444c-1.453,1.51-2.352,3.599-2.352,5.904
			c0,2.305,0.899,4.393,2.352,5.903c1.453,1.511,3.461,2.446,5.678,2.446c2.216,0,4.225-0.935,5.678-2.446
			c1.453-1.51,2.352-3.599,2.352-5.903c0-2.305-0.899-4.394-2.352-5.904c-1.453-1.511-3.461-2.446-5.678-2.446
			C161.512,78.999,159.503,79.933,158.05,81.444z"/>
		<path fill-rule="evenodd" clip-rule="evenodd" fill="#FFFFFF" d="M199.223,81.444c-1.452,1.51-2.352,3.599-2.352,5.904
			c0,2.305,0.899,4.393,2.352,5.903c1.453,1.511,3.462,2.446,5.678,2.446c2.217,0,4.226-0.935,5.678-2.446
			c1.453-1.51,2.353-3.599,2.353-5.903c0-2.305-0.899-4.394-2.353-5.904c-1.452-1.511-3.461-2.446-5.678-2.446
			C202.685,78.999,200.676,79.933,199.223,81.444z"/>
		<rect x="160.171" y="119.935" fill-rule="evenodd" clip-rule="evenodd" fill="#FFFFFF" width="48.286" height="7.288"/>
		<rect x="300.305" y="187.575" fill-rule="evenodd" clip-rule="evenodd" fill="#231F20" width="8.027" height="12.947"/>
		<path fill-rule="evenodd" clip-rule="evenodd" fill="#CDCDCD" d="M57.291,215.609h-14.63v35.929c0,4.023,3.291,7.314,7.315,7.314
			l0,0c4.023,0,7.315-3.291,7.315-7.314V215.609z"/>
		<rect x="60.308" y="187.575" fill-rule="evenodd" clip-rule="evenodd" fill="#231F20" width="10.98" height="12.947"/>
		<path fill-rule="evenodd" clip-rule="evenodd" fill="#5F6062" d="M315.87,169.129h5.2c5.834,0,10.606,4.772,10.606,10.606v28.505
			c0,5.833-4.772,10.606-10.606,10.606h-5.2c-5.833,0-10.605-4.773-10.605-10.606v-28.505
			C305.265,173.902,310.037,169.129,315.87,169.129z"/>
		<path fill-rule="evenodd" clip-rule="evenodd" fill="#5F6062" d="M317.557,261.765h1.952c2.917,0,5.304,2.387,5.304,5.304v13.476
			c0,2.916-2.387,5.303-5.304,5.303h-1.952c-2.917,0-5.303-2.387-5.303-5.303v-13.476
			C312.254,264.151,314.64,261.765,317.557,261.765z"/>
		<path fill-rule="evenodd" clip-rule="evenodd" fill="#231F20" d="M319.114,279.289c18.684,1.065,27.321,24.448,15.926,34.632
			l-5.826-4.661c8.638-12.354-0.621-20.752-10.1-21.636c-9.478,0.884-18.736,9.281-10.099,21.636l-5.826,4.661
			C291.794,303.737,300.431,280.354,319.114,279.289z"/>
		<path fill-rule="evenodd" clip-rule="evenodd" fill="#CDCDCD" d="M281.92,173.658L281.92,173.658
			c10.823,0,19.68,8.856,19.68,19.679v1.295c0,10.824-8.856,19.68-19.68,19.68l0,0V173.658z"/>
		<path fill-rule="evenodd" clip-rule="evenodd" fill="#5F6062" d="M52.769,169.129h-5.2c-5.833,0-10.606,4.772-10.606,10.606
			v28.505c0,5.833,4.773,10.606,10.606,10.606h5.2c5.833,0,10.606-4.773,10.606-10.606v-28.505
			C63.375,173.902,58.602,169.129,52.769,169.129z"/>
		<path fill-rule="evenodd" clip-rule="evenodd" fill="#5F6062" d="M51.083,261.765H49.13c-2.917,0-5.303,2.387-5.303,5.304v13.476
			c0,2.916,2.386,5.303,5.303,5.303h1.953c2.917,0,5.303-2.387,5.303-5.303v-13.476C56.386,264.151,54,261.765,51.083,261.765z"/>
		<path fill-rule="evenodd" clip-rule="evenodd" fill="#231F20" d="M49.525,279.289c-18.684,1.065-27.321,24.448-15.925,34.632
			l5.826-4.661c-8.638-12.354,0.621-20.752,10.099-21.636c9.478,0.884,18.737,9.281,10.099,21.636l5.826,4.661
			C76.846,303.737,68.208,280.354,49.525,279.289z"/>
		<path fill-rule="evenodd" clip-rule="evenodd" fill="#CDCDCD" d="M86.72,173.658L86.72,173.658
			c-10.824,0-19.68,8.856-19.68,19.679v1.295c0,10.824,8.856,19.68,19.68,19.68l0,0V173.658z"/>
		<path fill-rule="evenodd" clip-rule="evenodd" fill="#231F20" d="M230.4,276.702h-25.402v68.333
			c2.431-0.91,5.024-1.404,7.714-1.404h4.276c2.689,0,10.981,0.493,13.412,1.404V276.702z"/>
		<path fill-rule="evenodd" clip-rule="evenodd" fill="#231F20" d="M166.024,345.035v-68.333h-25.402v68.333
			c2.43-0.911,5.024-1.404,7.714-1.404h4.275C155.303,343.631,163.594,344.125,166.024,345.035z"/>
		<path fill="#DBAC1B" d="M122.872,224.685h125.28c3.146,0,5.697,2.551,5.697,5.698v49.003c0,3.146-2.551,5.697-5.697,5.697h-125.28
			c-3.146,0-5.698-2.551-5.698-5.697v-49.003C117.174,227.235,119.725,224.685,122.872,224.685z"/>
		<path fill="#F15B2A" d="M169.725,368.64h-32.803c-2.426,0-4.393-2.551-4.393-5.697c0-6.836,2.153-13.047,5.62-17.546
			c3.468-4.498,8.256-7.291,13.526-7.291h3.296c5.269,0,10.057,2.793,13.525,7.291c3.468,4.499,5.621,10.71,5.621,17.546
			C174.117,366.089,172.15,368.64,169.725,368.64z"/>
		<path fill-rule="evenodd" clip-rule="evenodd" fill="#F3BD20" d="M260.365,236.081c6.076,0,11.596-2.482,15.593-6.479
			s6.479-9.517,6.479-15.592v-10.432v-19.942v-10.431c0-6.076-2.481-11.595-6.479-15.592s-9.517-6.479-15.593-6.479
			c-47.142,0-98.964,0-152.091,0c-6.075,0-11.595,2.481-15.592,6.479c-3.997,3.998-6.479,9.517-6.479,15.592v10.431v19.942v10.432
			c0,6.075,2.482,11.595,6.479,15.592c3.998,3.997,9.517,6.479,15.592,6.479C140.476,236.081,229.393,236.081,260.365,236.081z"/>
		<path fill="#F15B2A" d="M234.101,368.64h-32.803c-2.426,0-4.393-2.551-4.393-5.697c0-6.836,2.152-13.047,5.62-17.546
			c3.469-4.498,8.256-7.291,13.525-7.291h3.296c5.27,0,10.058,2.793,13.525,7.291c3.468,4.499,5.621,10.71,5.621,17.546
			C238.493,366.089,236.526,368.64,234.101,368.64z"/>
	</g>
</g>
<g id="Upswyng">
	<polygon fill="#231F20" points="194.191,172.992 224.483,213.014 206.114,213.014 179.58,177.172 	"/>
	<path fill="#F15B2A" d="M177.098,172.936l-30.102,40.289h17.997l29.198-40.232C194.191,172.992,176.763,172.936,177.098,172.936"/>
</g>
<g id="Master_Layer_11">
</g>
</svg>
