<?xml version="1.0" encoding="utf-8"?>
<!-- Generator: Adobe Illustrator 16.0.4, SVG Export Plug-In . SVG Version: 6.00 Build 0)  -->
<!DOCTYPE svg PUBLIC "-//W3C//DTD SVG 1.1//EN" "http://www.w3.org/Graphics/SVG/1.1/DTD/svg11.dtd">
<svg version="1.1" id="Layer_1" xmlns="http://www.w3.org/2000/svg" xmlns:xlink="http://www.w3.org/1999/xlink" x="0px" y="0px"
	 width="125.142px" height="41.959px" viewBox="10.907 11 125.142 41.959" enable-background="new 10.907 11 125.142 41.959"
	 xml:space="preserve">
<path fill="#FFFFFF" d="M50.424,36.551c3.273,0.797,4.976,1.969,4.976,4.556c0,2.92-2.278,4.644-5.529,4.644
	c-2.367,0-4.6-0.818-6.458-2.476l1.637-1.946c1.481,1.283,2.963,2.012,4.887,2.012c1.681,0,2.743-0.774,2.743-1.969
	c0-1.128-0.62-1.724-3.495-2.388c-3.295-0.796-5.153-1.769-5.153-4.644c0-2.698,2.211-4.512,5.286-4.512
	c2.256,0,4.047,0.686,5.617,1.946l-1.46,2.058c-1.393-1.04-2.786-1.593-4.201-1.593c-1.593,0-2.521,0.818-2.521,1.858
	C46.753,35.312,47.461,35.843,50.424,36.551"/>
<polygon fill="#FFFFFF" points="68.962,30.005 71.261,30.005 75.066,41.526 78.76,30.048 81.611,30.048 76.215,45.64 73.872,45.64 
	70.067,34.516 66.264,45.64 63.919,45.64 58.523,30.048 61.465,30.048 65.158,41.526 "/>
<polygon fill="#F15B2A" points="92.917,45.53 90.176,45.53 90.176,39.426 84.027,30.049 87.234,30.049 91.568,36.905 95.947,30.049 
	99.064,30.049 92.917,39.36 "/>
<polygon fill="#FFFFFF" points="113.932,30.049 116.605,30.049 116.605,45.53 114.328,45.53 105.792,34.517 105.792,45.53 
	103.115,45.53 103.115,30.049 105.637,30.049 113.932,40.753 "/>
<path fill="#FFFFFF" d="M129.592,45.795c-4.844,0-8.027-3.45-8.027-7.983c0-4.358,3.316-8.029,7.983-8.029
	c2.698,0,4.356,0.752,5.949,2.101l-1.726,2.057c-1.193-1.017-2.367-1.658-4.336-1.658c-2.853,0-5.02,2.476-5.02,5.484
	c0,3.207,2.102,5.551,5.264,5.551c1.459,0,2.786-0.464,3.737-1.172v-2.897h-3.959v-2.367h6.591v6.502
	C134.523,44.69,132.335,45.795,129.592,45.795"/>
<path fill="#F15B2A" d="M15.036,30.745v7.847c0,1.652,0.267,3.629,2.361,3.629c2.095,0,2.36-1.977,2.36-3.629v-7.847h4.13v8.526
	c0,4.219-2.183,6.431-6.49,6.431c-4.308,0-6.49-2.212-6.49-6.431v-8.526H15.036z"/>
<path fill="#F15B2A" d="M30.91,32.072c0.944-1.121,2.479-1.799,4.013-1.799c4.1,0,6.607,3.835,6.607,7.64
	c0,3.954-2.418,7.788-6.696,7.788c-1.475,0-3.039-0.648-3.865-1.828H30.91v9.086h-4.13V30.745h4.13V32.072z M37.341,37.972
	c0-1.947-1.298-4.042-3.422-4.042s-3.422,2.095-3.422,4.042c0,1.948,1.298,4.072,3.422,4.072
	C36.042,42.044,37.341,39.92,37.341,37.972"/>
<polygon fill="#F3BD20" points="28.889,11.021 40.092,25.822 33.299,25.822 23.486,12.567 "/>
<path fill="#F15B2A" d="M22.568,11L11.436,25.899h6.656l10.797-14.878C28.889,11.021,22.444,11,22.568,11"/>
</svg>
